#N canvas 234 234 576 438 12;
#X obj 42 28 tgl 19 0 empty empty empty 0 -10 0 12 #fcfcfc #000000 #000000 0 1;
#X text 66 28 Entrée (0 ou 1). 1 indique actif. 0 indique innactif.;
#X obj 41 325 tgl 19 0 empty empty empty 0 -10 0 12 #fcfcfc #000000 #000000 0 1;
#X text 66 326 Sortie (0 ou 1). L'activation partira dans 3 secondes si elle est encore active à l'entrée.;
#X obj 98 132 loadbang;
#X text 96 192 ms : intervalle de temps à attendre avant d'activer;
#X msg 98 164 ms 3000;
#N canvas 989 369 630 431 retarder_activation 0;
#X obj 31 147 select 1 0;
#X text 66 28 Entrée (0 ou 1). 1 indique actif. 0 indique innactif.;
#X obj 29 242 delay 3000;
#X obj 124 179 t b b;
#X msg 155 214 stop;
#X msg 124 270 0;
#X msg 28 271 1;
#X text 53 374 Sortie (0 ou 1). L'activation partira dans 3 secondes si elle est encore active à l'entrée.;
#X obj 14 27 inlet;
#X obj 53 343 outlet;
#X obj 24 66 route float;
#X obj 31 105 change;
#X obj 123 116 route ms;
#X connect 0 0 2 0;
#X connect 0 1 3 0;
#X connect 2 0 6 0;
#X connect 3 0 5 0;
#X connect 3 1 4 0;
#X connect 4 0 2 0;
#X connect 5 0 9 0;
#X connect 6 0 9 0;
#X connect 8 0 10 0;
#X connect 10 0 11 0;
#X connect 10 1 12 0;
#X connect 11 0 0 0;
#X connect 12 0 2 1;
#X restore 41 218 pd retarder_activation;
#X text 68 62 Uniquement l'activation sera retardée;
#X connect 0 0 7 0;
#X connect 4 0 6 0;
#X connect 6 0 7 0;
#X connect 7 0 2 0;
