#N canvas 827 239 666 582 12;
#N canvas 52 52 1123 753 slide 0;
#X obj 263 36 inlet;
#X obj 247 747 outlet;
#X obj 245 363 f;
#X obj 54 122 loadbang;
#X msg 57 209 1;
#X obj 374 494 moses 0;
#X obj 374 455 -;
#X obj 247 408 t f f;
#X obj 54 167 t b b;
#X obj 60 346 metro;
#X msg 100 207 50;
#X obj 247 608 expr $f2+($f1-$f2)*$f3;
#X obj 247 649 t f f f;
#X text 467 476 Les valeurs down et up déterminent le facteur du slide. Le facteur doit être entre 0 et 1 Plus le facteur est élevé \, plus c'est rapide.;
#X text 416 578 down : facteur de slide si la valeur baisse;
#X text 550 548 up : facteur de slide si la valeur monte;
#X text 134 206 Intervalle en millisecondes (plus le nombre est élevé \, plus c'est lent);
#X obj 749 194 t f f;
#X obj 264 84 route float;
#X text 304 36 Entrée des données à «glisser»;
#X obj 367 570 f 0.01;
#X msg 375 519 bang;
#X msg 496 523 bang;
#X obj 495 550 f 0.01;
#X msg 127 263 1000 \$1;
#X obj 338 137 route hz set down up;
#X obj 127 290 /;
#X text 623 34 BY THOMAS O FREDERICKS;
#X text 621 52 VERSION 1 2025-03-19;
#X connect 0 0 18 0;
#X connect 2 0 7 0;
#X connect 3 0 8 0;
#X connect 4 0 9 0;
#X connect 5 0 21 0;
#X connect 5 1 22 0;
#X connect 6 0 5 0;
#X connect 7 0 11 0;
#X connect 7 1 6 0;
#X connect 8 0 4 0;
#X connect 8 1 10 0;
#X connect 9 0 2 0;
#X connect 10 0 9 1;
#X connect 11 0 12 0;
#X connect 12 0 1 0;
#X connect 12 1 11 1;
#X connect 12 2 6 1;
#X connect 17 0 12 0;
#X connect 17 1 2 1;
#X connect 18 0 2 1;
#X connect 18 1 25 0;
#X connect 20 0 11 2;
#X connect 21 0 20 0;
#X connect 22 0 23 0;
#X connect 23 0 11 2;
#X connect 24 0 26 0;
#X connect 25 0 24 0;
#X connect 25 1 17 0;
#X connect 25 2 20 1;
#X connect 25 3 23 1;
#X connect 26 0 9 1;
#X restore 116 274 pd slide;
#X floatatom 116 439 8 0 0 0 - - - 36;
#X floatatom 116 72 8 0 0 0 - - - 36;
#X msg 190 236 set 64;
#X obj 191 174 loadbang;
#X msg 191 203 hz 50 \, down 0.05 \, up 0.05;
#X text 169 308 hz : sets the frequency in hertz of the ouput;
#X text 169 328 set : immediately sets the value;
#X text 171 369 up : set an upward slide value more than 0 up to 1;
#X text 171 348 down : set a downard slide value more than 0 up to 1;
#X connect 0 0 1 0;
#X connect 2 0 0 0;
#X connect 3 0 0 0;
#X connect 4 0 5 0;
#X connect 5 0 0 0;
