#N canvas 827 239 602 582 12;
#N canvas 52 52 1123 753 slide 0;
#X obj 262 222 inlet;
#X obj 247 653 outlet;
#X obj 247 278 f;
#X obj 113 77 loadbang;
#X msg 116 164 1;
#X obj 374 400 moses 0;
#X obj 374 361 -;
#X obj 247 314 t f f;
#X obj 113 122 t b b;
#X obj 113 204 metro;
#X msg 159 162 50;
#X msg 374 484 0.01;
#X obj 247 514 expr $f2+($f1-$f2)*$f3;
#X obj 247 555 t f f f;
#X msg 515 452 0.5;
#X text 467 382 Les valeurs down et up déterminent le facteur du slide. Le facteur doit être entre 0 et 1 Plus le facteur est élevé \, plus c'est rapide.;
#X text 416 484 down : facteur de slide si la valeur baisse;
#X text 550 454 up : facteur de slide si la valeur monte;
#X obj 749 141 inlet;
#X text 193 161 Intervalle en millisecondes (plus le nombre est élevé \, plus c'est lent);
#X text 303 222 Entrée des données à «slider»;
#X text 795 140 Changer la valeur immédiatement;
#X obj 749 194 t f f;
#X connect 0 0 2 1;
#X connect 2 0 7 0;
#X connect 3 0 8 0;
#X connect 4 0 9 0;
#X connect 5 0 11 0;
#X connect 5 1 14 0;
#X connect 6 0 5 0;
#X connect 7 0 12 0;
#X connect 7 1 6 0;
#X connect 8 0 4 0;
#X connect 8 1 10 0;
#X connect 9 0 2 0;
#X connect 10 0 9 1;
#X connect 11 0 12 2;
#X connect 12 0 13 0;
#X connect 13 0 1 0;
#X connect 13 1 12 1;
#X connect 13 2 6 1;
#X connect 14 0 12 2;
#X connect 18 0 22 0;
#X connect 22 0 13 0;
#X connect 22 1 2 1;
#X restore 169 246 pd slide;
#X floatatom 169 303 8 0 0 0 - - - 36;
#X floatatom 169 167 8 0 0 0 - - - 36;
#X msg 273 239 64;
#X connect 0 0 1 0;
#X connect 2 0 0 0;
#X connect 3 0 0 1;
