#N canvas 92 130 400 682 12;
#X obj 49 206 comport;
#X msg 48 51 devices;
#X msg 103 95 baud 115200;
#X msg 121 143 open 4;
#X text 108 51 Lister les ports dans la fenêtre Pd;
#X text 193 92 Choisir le bon débit;
#X text 174 142 Ouvrir le bon port;
#X msg 139 174 close;
#X text 189 175 Libérer le port;
#X obj 49 262 pdchoco/slip_parse;
#X obj 49 287 oscparse;
#X obj 49 314 list trim;
#X text 183 263 Traiter les données SLIP;
#X text 115 287 Traiter les données OSC;
#X text 122 312 Retirer le préfixe list;
#X obj 49 360 route angle button;
#X floatatom 48 407 5 0 0 0 - - - 0;
#X floatatom 114 407 5 0 0 0 - - - 0;
#X obj 48 550 pdchoco/scope 0 4095;
#X obj 114 438 pdchoco/scope 0 1;
#X connect 0 0 9 0;
#X connect 1 0 0 0;
#X connect 2 0 0 0;
#X connect 3 0 0 0;
#X connect 7 0 0 0;
#X connect 9 0 10 0;
#X connect 10 0 11 0;
#X connect 11 0 15 0;
#X connect 15 0 16 0;
#X connect 15 1 17 0;
#X connect 16 0 18 0;
#X connect 17 0 19 0;
