#N canvas 684 353 490 372 12;
#X obj 42 28 tgl 19 0 empty empty empty 0 -10 0 12 #fcfcfc #000000 #000000 0 1;
#X floatatom 42 176 8 0 0 0 - - - 0;
#X obj 42 220 moses 200;
#X obj 41 302 bng 19 250 50 0 empty empty empty 0 -10 0 12 #fcfcfc #000000 #000000;
#X text 66 301 Sortie «bang» si la durée est moins de 200 ms.;
#X obj 103 259 bng 19 250 50 0 empty empty empty 0 -10 0 12 #fcfcfc #000000 #000000;
#X text 129 258 Sortie «bang» si la durée est plus de 200 ms.;
#X text 66 29 Entrée (0 ou 1). 1 indique actif. 0 indique innactif.;
#X text 104 175 Durée de temps actif;
#N canvas 26 26 381 501 duree_actif 0;
#X obj 127 250 timer;
#X obj 127 211 select 1 0;
#X obj 127 177 change;
#X obj 126 102 inlet;
#X obj 125 302 outlet;
#X connect 0 0 4 0;
#X connect 1 0 0 0;
#X connect 1 1 0 1;
#X connect 2 0 1 0;
#X connect 3 0 2 0;
#X restore 42 122 pd duree_actif;
#X connect 0 0 9 0;
#X connect 1 0 2 0;
#X connect 2 0 3 0;
#X connect 2 1 5 0;
#X connect 9 0 1 0;
