#N canvas 283 167 995 661 12;
#X obj 154 196 comport;
#X msg 214 136 devices;
#X obj 153 345 pdchoco/slip_parse;
#X obj 154 624 netsend -u -b;
#X msg 280 587 disconnect;
#X msg 283 138 close;
#X text 166 524 ENVOYER LES DONNEES VERS LE LOGICIEL;
#X msg 339 137 close \, baud 115200 \, open 4;
#X msg 273 559 disconnect \, connect 127.0.0.1 8001;
#X obj 204 438 oscparse;
#X obj 242 387 tgl 19 0 empty empty DEBOGAGE_OSC 22 11 0 12 #fcfcfc #000000 #000000 0 1;
#X obj 204 411 spigot;
#X obj 204 499 print OSC;
#X obj 232 252 tgl 19 0 empty empty DEBOGAGE_BRUT 22 11 0 12 #fcfcfc #000000 #000000 0 1;
#X obj 195 276 spigot;
#X obj 128 215 bng 19 250 50 0 empty empty empty 0 -10 0 12 #fcfcfc #000000 #000000;
#X text 149 14 RECEVOIR LES DONNEES DU LOGICIEL;
#X text 212 196 ENVOYER ET RECEVOIR LES DONNEES AU MICROCONTRÔLEUR;
#X obj 126 61 bng 19 250 50 0 empty empty empty 0 -10 0 12 #fcfcfc #000000 #000000;
#X obj 154 42 netreceive -u -b 8000;
#X obj 155 106 pdchoco/slip_pack;
#X text 120 41 UDP;
#X text 116 107 SLIP;
#X text 113 346 SLIP;
#X text 122 625 UDP;
#X text 119 196 COM;
#X obj 407 232 tgl 19 0 empty empty DEBOGAGE_ASCII 22 11 0 12 #fcfcfc #000000 #000000 0 1;
#X obj 370 256 spigot;
#X obj 370 284 pdchoco/ascii_parse;
#X obj 370 313 print ASCII;
#X obj 195 308 print BRUT;
#X obj 204 468 list trim;
#X connect 0 0 2 0;
#X connect 0 0 14 0;
#X connect 0 0 15 0;
#X connect 0 0 27 0;
#X connect 1 0 0 0;
#X connect 2 0 3 0;
#X connect 2 0 11 0;
#X connect 4 0 3 0;
#X connect 5 0 0 0;
#X connect 7 0 0 0;
#X connect 8 0 3 0;
#X connect 9 0 31 0;
#X connect 10 0 11 1;
#X connect 11 0 9 0;
#X connect 13 0 14 1;
#X connect 14 0 30 0;
#X connect 19 0 18 0;
#X connect 19 0 20 0;
#X connect 20 0 0 0;
#X connect 26 0 27 1;
#X connect 27 0 28 0;
#X connect 28 0 29 0;
#X connect 31 0 12 0;
