#N canvas 538 122 897 743 12;
#X obj 48 11 cnv 19 780 512 empty empty websockets 20 12 0 12 #e0e0e0 #404040 0;
#X obj 51 564 cnv 19 512 150 empty empty webserver 20 12 0 12 #e0e0e0 #404040 0;
#X obj 598 19 cnv 19 220 30 empty empty Requires\ websocketserver 20 12 0 12 #ff0400 #ffffff 0;
#N canvas 0 0 1600 827 websocketserver 0;
#X obj 68 8 inlet;
#X obj 112 822 outlet;
#X obj 113 504 websocketserver;
#X msg 372 272 connect \$1;
#X msg 459 274 disconnect;
#X obj 458 495 list trim;
#X obj 488 636 list split 1;
#X obj 587 638 list split 1;
#X obj 482 836 outlet;
#X obj 521 770 list prepend clients;
#X obj 521 798 list trim;
#X obj 110 284 t b b a;
#X obj 320 760 list split 1;
#X obj 104 354 f;
#X obj 320 790 route bang;
#X msg 146 345 1;
#X obj 312 451 list trim;
#X msg 122 437 send \$1;
#X text 566 727 keep a list of active clients and keep the first for broadcast;
#X obj 262 318 t b b a;
#X msg 275 371 0;
#N canvas 150 228 637 347 list-bag 0;
#X obj 139 28 inlet;
#X obj 140 295 outlet;
#X obj 140 141 t a a;
#X obj 140 98 list append, f 14;
#X obj 370 98 list store;
#X obj 360 22 inlet;
#X obj 387 185 select;
#X obj 426 266 t a a;
#X obj 426 223 list append, f 14;
#N canvas 104 104 450 300 list-iterator 0;
#X obj 75 96 until;
#X obj 88 179 list store;
#X obj 109 63 t b b l;
#X obj 75 121 f;
#X obj 113 122 + 1;
#X msg 132 96 0, f 2;
#X msg 75 152 get \$1 1;
#X obj 111 24 inlet;
#X obj 94 229 outlet;
#X connect 0 0 3 0;
#X connect 1 0 8 0;
#X connect 1 1 0 1;
#X connect 2 0 0 0;
#X connect 2 1 5 0;
#X connect 2 2 1 1;
#X connect 3 0 4 0;
#X connect 3 0 6 0;
#X connect 4 0 3 1;
#X connect 5 0 3 1;
#X connect 6 0 1 0;
#X connect 7 0 2 0;
#X restore 357 151 pd list-iterator;
#X obj 359 48 t b b a b;
#X obj 303 269 list;
#X obj 331 217 print iter;
#X connect 0 0 3 0;
#X connect 2 0 1 0;
#X connect 2 1 3 1;
#X connect 2 1 4 1;
#X connect 3 0 2 0;
#X connect 4 0 9 0;
#X connect 5 0 10 0;
#X connect 6 1 8 0;
#X connect 7 0 11 1;
#X connect 7 1 8 1;
#X connect 8 0 7 0;
#X connect 9 0 12 0;
#X connect 9 0 6 0;
#X connect 10 0 11 0;
#X connect 10 1 4 0;
#X connect 10 2 6 1;
#X connect 10 3 8 1;
#X connect 10 3 11 1;
#X connect 11 0 2 0;
#X restore 488 668 pd list-bag;
#X obj 490 722 t a a;
#X obj 452 583 route open close;
#X obj 480 529 t a a;
#X obj 68 40 route list float;
#X obj 115 697 list prepend;
#X obj 192 173 list split 1;
#X obj 340 119 route start stop all;
#X connect 0 0 25 0;
#X connect 2 0 26 0;
#X connect 2 2 26 1;
#X connect 2 3 5 0;
#X connect 3 0 2 0;
#X connect 4 0 2 0;
#X connect 5 0 24 0;
#X connect 6 0 21 0;
#X connect 7 0 21 1;
#X connect 9 0 10 0;
#X connect 10 0 8 0;
#X connect 11 0 13 0;
#X connect 11 1 15 0;
#X connect 11 2 16 0;
#X connect 12 0 14 0;
#X connect 13 0 17 0;
#X connect 14 1 13 1;
#X connect 15 0 2 1;
#X connect 16 0 2 2;
#X connect 17 0 2 0;
#X connect 19 1 20 0;
#X connect 19 2 16 0;
#X connect 20 0 2 1;
#X connect 21 0 22 0;
#X connect 22 0 9 0;
#X connect 22 1 12 0;
#X connect 23 0 6 0;
#X connect 23 1 7 0;
#X connect 23 2 8 0;
#X connect 24 0 8 0;
#X connect 24 1 23 0;
#X connect 25 0 27 0;
#X connect 25 2 28 0;
#X connect 26 0 1 0;
#X connect 27 0 17 0;
#X connect 27 1 19 0;
#X connect 28 0 3 0;
#X connect 28 1 4 0;
#X connect 28 2 11 0;
#X restore 55 323 pd websocketserver;
#X obj 201 671 webserver;
#X msg 201 628 stop;
#X msg 55 87 start 8080;
#X obj 55 56 loadbang;
#X msg 58 627 start ./web 8081;
#X msg 147 87 stop;
#X obj 58 598 loadbang;
#X floatatom 270 163 5 0 0 0 - - - 0;
#X obj 288 359 route server-running clients;
#X listbox 450 485 20 0 0 0 - - - 0;
#X obj 288 403 tgl 19 0 empty empty empty 0 -10 0 12 #fcfcfc #000000 #000000 0 1;
#X obj 384 427 route bang;
#X msg 385 449 set;
#X floatatom 376 202 6 0 0 0 - - - 0;
#X text 129 586 Partir le serveur avec comme racine le dossier "web" qui est dans le même dossier que ce patch.;
#X obj 482 389 print connexions;
#X obj 595 253 route open;
#X text 560 306 send client id to client on open;
#X text 467 466 list of connected clients;
#X text 494 411 clients connecting and disconnecting;
#X obj 57 468 print client-message;
#X text 69 448 list : client followed by message;
#X text 259 39 send message to all clients;
#X floatatom 263 62 5 0 0 0 - - - 0;
#X msg 595 282 list \$1 id \$1;
#X text 425 203 client id;
#X obj 269 237 list prepend;
#X msg 269 198 list sl1 \$1;
#X text 269 140 first element is client id;
#X msg 262 87 all sl1 \$1;
#X text 269 118 messages to be sent to a specific client must be lists;
#X obj 374 678 cnv 19 180 30 empty empty Requires\ webserver 20 12 0 12 #ff0400 #ffffff 0;
#X connect 3 0 24 0;
#X connect 3 1 12 0;
#X connect 5 0 4 0;
#X connect 6 0 3 0;
#X connect 7 0 6 0;
#X connect 8 0 4 0;
#X connect 9 0 3 0;
#X connect 10 0 8 0;
#X connect 11 0 31 0;
#X connect 12 0 14 0;
#X connect 12 1 15 0;
#X connect 12 2 19 0;
#X connect 12 2 20 0;
#X connect 15 0 16 0;
#X connect 15 1 13 0;
#X connect 16 0 13 0;
#X connect 17 0 30 1;
#X connect 20 0 28 0;
#X connect 27 0 33 0;
#X connect 28 0 3 0;
#X connect 30 0 3 0;
#X connect 31 0 30 0;
#X connect 33 0 3 0;
