#N canvas 128 42 1020 706 12;
#N canvas 0 0 1600 827 websocketserver 0;
#X obj 68 8 inlet;
#X obj 112 822 outlet;
#X obj 113 504 websocketserver;
#X msg 372 272 connect \$1;
#X msg 459 274 disconnect;
#X obj 340 119 route start stop set;
#X obj 458 495 list trim;
#X obj 488 636 list split 1;
#X obj 587 638 list split 1;
#X obj 482 836 outlet;
#X obj 521 770 list prepend clients;
#X obj 521 798 list trim;
#X obj 225 823 outlet;
#X obj 127 313 t b b a;
#X obj 320 760 list split 1;
#X obj 121 383 f;
#X obj 320 790 route bang;
#X msg 163 374 1;
#X obj 440 156 route all;
#X msg 420 185 1;
#X obj 312 451 list trim;
#X msg 122 437 send \$1;
#X text 566 727 keep a list of active clients and keep the first for broadcast;
#X obj 119 233 spigot 1;
#X obj 240 238 spigot 0;
#X msg 456 185 0;
#X msg 504 184 0;
#X msg 540 184 1;
#X obj 237 370 f;
#X obj 262 318 t b b a;
#X msg 275 371 0;
#X obj 115 697 list;
#N canvas 150 228 637 347 list-bag 0;
#X obj 139 28 inlet;
#X obj 140 295 outlet;
#X obj 140 141 t a a;
#X obj 140 98 list append, f 14;
#X obj 370 98 list store;
#X obj 360 22 inlet;
#X obj 387 185 select;
#X obj 426 266 t a a;
#X obj 426 223 list append, f 14;
#N canvas 104 104 450 300 list-iterator 0;
#X obj 75 96 until;
#X obj 88 179 list store;
#X obj 109 63 t b b l;
#X obj 75 121 f;
#X obj 113 122 + 1;
#X msg 132 96 0, f 2;
#X msg 75 152 get \$1 1;
#X obj 111 24 inlet;
#X obj 94 229 outlet;
#X connect 0 0 3 0;
#X connect 1 0 8 0;
#X connect 1 1 0 1;
#X connect 2 0 0 0;
#X connect 2 1 5 0;
#X connect 2 2 1 1;
#X connect 3 0 4 0;
#X connect 3 0 6 0;
#X connect 4 0 3 1;
#X connect 5 0 3 1;
#X connect 6 0 1 0;
#X connect 7 0 2 0;
#X restore 357 151 pd list-iterator;
#X obj 359 48 t b b a b;
#X obj 303 269 list;
#X obj 331 217 print iter;
#X connect 0 0 3 0;
#X connect 2 0 1 0;
#X connect 2 1 3 1;
#X connect 2 1 4 1;
#X connect 3 0 2 0;
#X connect 4 0 9 0;
#X connect 5 0 10 0;
#X connect 6 1 8 0;
#X connect 7 0 11 1;
#X connect 7 1 8 1;
#X connect 8 0 7 0;
#X connect 9 0 12 0;
#X connect 9 0 6 0;
#X connect 10 0 11 0;
#X connect 10 1 4 0;
#X connect 10 2 6 1;
#X connect 10 3 8 1;
#X connect 10 3 11 1;
#X connect 11 0 2 0;
#X restore 488 668 pd list-bag;
#X obj 490 722 t a a;
#X obj 452 583 route open close;
#X obj 480 529 t a a;
#X obj 68 40 route list float;
#X connect 0 0 36 0;
#X connect 2 0 31 0;
#X connect 2 2 12 0;
#X connect 2 3 6 0;
#X connect 3 0 2 0;
#X connect 4 0 2 0;
#X connect 5 0 3 0;
#X connect 5 1 4 0;
#X connect 5 2 18 0;
#X connect 6 0 35 0;
#X connect 7 0 32 0;
#X connect 8 0 32 1;
#X connect 10 0 11 0;
#X connect 11 0 9 0;
#X connect 13 0 15 0;
#X connect 13 1 17 0;
#X connect 13 2 20 0;
#X connect 14 0 16 0;
#X connect 15 0 21 0;
#X connect 16 1 15 1;
#X connect 17 0 2 1;
#X connect 18 0 19 0;
#X connect 18 0 25 0;
#X connect 18 1 26 0;
#X connect 18 1 27 0;
#X connect 18 1 28 1;
#X connect 19 0 23 1;
#X connect 20 0 2 2;
#X connect 21 0 2 0;
#X connect 23 0 13 0;
#X connect 24 0 29 0;
#X connect 25 0 24 1;
#X connect 26 0 23 1;
#X connect 27 0 24 1;
#X connect 28 0 21 0;
#X connect 29 0 28 0;
#X connect 29 1 30 0;
#X connect 29 2 20 0;
#X connect 30 0 2 1;
#X connect 31 0 1 0;
#X connect 32 0 33 0;
#X connect 33 0 10 0;
#X connect 33 1 14 0;
#X connect 34 0 7 0;
#X connect 34 1 8 0;
#X connect 34 2 9 0;
#X connect 35 0 9 0;
#X connect 35 1 34 0;
#X connect 36 0 23 0;
#X connect 36 0 24 0;
#X connect 36 1 23 0;
#X connect 36 1 24 0;
#X connect 36 2 5 0;
#X restore 79 291 pd websocketserver;
#X obj 218 609 webserver;
#X msg 218 566 stop;
#X msg 79 55 start 8080;
#X obj 79 24 loadbang;
#X msg 75 565 start ./web 8081;
#X msg 171 55 stop;
#X obj 75 536 loadbang;
#X msg 344 165 list sl1 \$1;
#X floatatom 344 137 5 0 0 0 - - - 0;
#X obj 312 327 route server-running clients;
#X listbox 485 465 20 0 0 0 - - - 0;
#X obj 322 433 tgl 19 0 empty empty empty 0 -10 0 12 #fcfcfc #000000 #000000 0 1;
#X obj 419 407 route bang;
#X msg 420 429 set;
#X msg 295 26 set all;
#X floatatom 301 63 5 0 0 0 - - - 0;
#X msg 301 87 set \$1;
#X text 146 524 Partir le serveur avec comme racine le dossier "web" qui est dans le même dossier que ce patch.;
#X text 348 24 send messages to all clients;
#X text 345 63 send messages to specified client id;
#X text 436 166 messages to be send must be lists;
#X obj 83 417 print message-list;
#X obj 143 384 print message-client;
#X obj 516 405 print connexions;
#X obj 619 221 route open;
#X msg 619 252 set \$1 \, list id \$1;
#X text 753 252 send client id to client on open;
#X connect 0 0 22 0;
#X connect 0 1 23 0;
#X connect 0 2 10 0;
#X connect 2 0 1 0;
#X connect 3 0 0 0;
#X connect 4 0 3 0;
#X connect 5 0 1 0;
#X connect 6 0 0 0;
#X connect 7 0 5 0;
#X connect 8 0 0 0;
#X connect 9 0 8 0;
#X connect 10 0 12 0;
#X connect 10 1 13 0;
#X connect 10 2 24 0;
#X connect 10 2 25 0;
#X connect 13 0 14 0;
#X connect 13 1 11 0;
#X connect 14 0 11 0;
#X connect 15 0 0 0;
#X connect 16 0 17 0;
#X connect 17 0 0 0;
#X connect 25 0 26 0;
#X connect 26 0 0 0;
