#N canvas 234 234 576 438 12;
#X obj 42 28 tgl 19 0 empty empty empty 0 -10 0 12 #fcfcfc #000000 #000000 0 1;
#X obj 42 70 select 1 0;
#X text 66 28 Entrée (0 ou 1). 1 indique actif. 0 indique innactif.;
#X obj 42 194 delay 3000;
#X obj 42 102 bng 19 250 50 0 empty empty empty 0 -10 0 12 #fcfcfc #000000 #000000;
#X obj 135 102 t b b;
#X msg 166 137 stop;
#X msg 137 222 0;
#X msg 41 223 1;
#X obj 41 325 tgl 19 0 empty empty empty 0 -10 0 12 #fcfcfc #000000 #000000 0 1;
#X text 66 326 Sortie (0 ou 1). L'activation partira dans 3 secondes si elle est encore active à l'entrée.;
#X connect 0 0 1 0;
#X connect 1 0 4 0;
#X connect 1 1 5 0;
#X connect 3 0 8 0;
#X connect 4 0 3 0;
#X connect 5 0 7 0;
#X connect 5 1 6 0;
#X connect 6 0 3 0;
#X connect 7 0 9 0;
#X connect 8 0 9 0;
